=========== ALANA LEE HAMILTON - BUTTERFLIES HD 1020P =========================

Format                           : MPEG-4
Format profile                   : Base Media / Version 2
Codec ID                         : mp42
File size                        : 93.3 MiB
Duration                         : 3mn 27s
Overall bit rate                 : 3 775 Kbps
Encoded date                     : UTC 2010-10-06 13:30:20
Tagged date                      : UTC 2010-10-06 13:30:20

Video
ID                               : 1
Format                           : AVC
Format/Info                      : Advanced Video Codec
Format profile                   : High@L4.0
Format settings, CABAC           : Yes
Format settings, ReFrames        : 1 frame
Codec ID                         : avc1
Codec ID/Info                    : Advanced Video Coding
Duration                         : 3mn 27s
Bit rate mode                    : Variable
Bit rate                         : 3 642 Kbps
Maximum bit rate                 : 8 778 Kbps
Width                            : 1 920 pixels
Height                           : 1 080 pixels
Display aspect ratio             : 16:9
Frame rate mode                  : Variable
Frame rate                       : 23.976 fps
Minimum frame rate               : 17.241 fps
Maximum frame rate               : 24.390 fps
Color space                      : YUV
Chroma subsampling               : 4:2:0
Bit depth                        : 8 bits
Scan type                        : Progressive
Bits/(Pixel*Frame)               : 0.073
Stream size                      : 90.0 MiB (96%)
Tagged date                      : UTC 2010-10-06 13:30:25

Audio
ID                               : 2
Format                           : AAC
Format/Info                      : Advanced Audio Codec
Format version                   : Version 4
Format profile                   : LC
Format settings, SBR             : No
Codec ID                         : 40
Duration                         : 3mn 27s
Bit rate mode                    : Variable
Bit rate                         : 127 Kbps
Maximum bit rate                 : 144 Kbps
Channel(s)                       : 2 channels
Channel positions                : Front: L R
Sampling rate                    : 44.1 KHz
Stream size                      : 3.14 MiB (3%)
Title                            : (C) 2007 Google Inc. v08.13.2007.
Encoded date                     : UTC 2010-10-06 13:30:23
Tagged date                      : UTC 2010-10-06 13:30:25

=================== SCREEN SHOTS===========================================

                   http://bayimg.com/DAjbCaAdF
                   http://bayimg.com/dAJBDAAdf

 ===========  LIFE IS TOO SHORT SO, ENJOY EVERY MOMENT ====================== 

===================================================================================
 ##  #  # # # # ### ### ###     ##  #   ###  #   ## ### ===========================
#   # # ### ### #   # #  #      # # #   #   # # #   # =============================  
#   # # ### ### ##  # #  #      ##  #   ##  ###  #  ##=============================  
#   # # # # # # #   # #  #      #   #   #   # #   # # =============================  
 ##  #  # # # # ### # #  #      #   ### ### # # ##  ###===========================
==================================================================================
		

                   